<?xml version="1.0" encoding="UTF-8" standalone="no"?>
<!DOCTYPE svg PUBLIC "-//W3C//DTD SVG 1.1//EN"
 "http://www.w3.org/Graphics/SVG/1.1/DTD/svg11.dtd">
<!-- Generated by graphviz version 2.40.1 (20161225.0304)
 -->
<!-- Title: dependencies Pages: 1 -->
<svg width="504pt" height="284pt"
 viewBox="0.00 0.00 504.00 284.00" xmlns="http://www.w3.org/2000/svg" xmlns:xlink="http://www.w3.org/1999/xlink">
<g id="graph0" class="graph" transform="scale(1 1) rotate(0) translate(4 280)">
<title>dependencies</title>
<polygon fill="#ffffff" stroke="transparent" points="-4,4 -4,-280 500,-280 500,4 -4,4"/>
<text text-anchor="start" x="227.0091" y="-42.4" font-family="sans-serif" font-weight="bold" font-size="14.00" fill="#000000">Legend</text>
<polygon fill="#ffffb3" stroke="transparent" points="14,-10 14,-30 34,-30 34,-10 14,-10"/>
<text text-anchor="start" x="37.629" y="-15.4" font-family="sans-serif" font-size="14.00" fill="#000000"> &#160;Declarations</text>
<polygon fill="#8dd3c7" stroke="transparent" points="127,-10 127,-30 147,-30 147,-10 127,-10"/>
<text text-anchor="start" x="150.7251" y="-15.4" font-family="sans-serif" font-size="14.00" fill="#000000"> &#160;Module</text>
<polygon fill="#80b1d3" stroke="transparent" points="213,-10 213,-30 233,-30 233,-10 213,-10"/>
<text text-anchor="start" x="236.7812" y="-15.4" font-family="sans-serif" font-size="14.00" fill="#000000"> &#160;Bootstrap</text>
<polygon fill="#fdb462" stroke="transparent" points="310,-10 310,-30 330,-30 330,-10 310,-10"/>
<text text-anchor="start" x="333.6732" y="-15.4" font-family="sans-serif" font-size="14.00" fill="#000000"> &#160;Providers</text>
<polygon fill="#fb8072" stroke="transparent" points="406,-10 406,-30 426,-30 426,-10 406,-10"/>
<text text-anchor="start" x="429.7258" y="-15.4" font-family="sans-serif" font-size="14.00" fill="#000000"> &#160;Exports</text>
<g id="clust1" class="cluster">
<title>cluster_ComponentsLibraryModule</title>
<polygon fill="none" stroke="#000000" stroke-dasharray="1,5" points="49,-70 49,-268 447,-268 447,-70 49,-70"/>
</g>
<g id="clust2" class="cluster">
<title>cluster_ComponentsLibraryModule_declarations</title>
<polygon fill="none" stroke="#000000" points="60,-78 60,-130 436,-130 436,-78 60,-78"/>
</g>
<g id="clust6" class="cluster">
<title>cluster_ComponentsLibraryModule_exports</title>
<polygon fill="none" stroke="#000000" points="57,-208 57,-260 439,-260 439,-208 57,-208"/>
</g>
<!-- LibraryButtonComponent -->
<g id="node1" class="node">
<title>LibraryButtonComponent</title>
<polygon fill="#ffffb3" stroke="#000000" points="427.9298,-122 266.0702,-122 266.0702,-86 427.9298,-86 427.9298,-122"/>
<text text-anchor="middle" x="347" y="-99.8" font-family="Times,serif" font-size="14.00" fill="#000000">LibraryButtonComponent</text>
</g>
<!-- ComponentsLibraryModule -->
<g id="node3" class="node">
<title>ComponentsLibraryModule</title>
<polygon fill="#8dd3c7" stroke="#000000" points="245.3061,-187 242.3061,-191 221.3061,-191 218.3061,-187 72.6939,-187 72.6939,-151 245.3061,-151 245.3061,-187"/>
<text text-anchor="middle" x="159" y="-164.8" font-family="Times,serif" font-size="14.00" fill="#000000">ComponentsLibraryModule</text>
</g>
<!-- LibraryButtonComponent&#45;&gt;ComponentsLibraryModule -->
<g id="edge1" class="edge">
<title>LibraryButtonComponent&#45;&gt;ComponentsLibraryModule</title>
<path fill="none" stroke="#000000" d="M373.9882,-122.0225C373.9882,-139.3734 373.9882,-163 373.9882,-163 373.9882,-163 255.2052,-163 255.2052,-163"/>
<polygon fill="#000000" stroke="#000000" points="255.2052,-159.5001 245.2052,-163 255.2051,-166.5001 255.2052,-159.5001"/>
</g>
<!-- LibraryCheckboxComponent -->
<g id="node2" class="node">
<title>LibraryCheckboxComponent</title>
<polygon fill="#ffffb3" stroke="#000000" points="248.0772,-122 67.9228,-122 67.9228,-86 248.0772,-86 248.0772,-122"/>
<text text-anchor="middle" x="158" y="-99.8" font-family="Times,serif" font-size="14.00" fill="#000000">LibraryCheckboxComponent</text>
</g>
<!-- LibraryCheckboxComponent&#45;&gt;ComponentsLibraryModule -->
<g id="edge2" class="edge">
<title>LibraryCheckboxComponent&#45;&gt;ComponentsLibraryModule</title>
<path fill="none" stroke="#000000" d="M159,-122.1061C159,-122.1061 159,-140.991 159,-140.991"/>
<polygon fill="#000000" stroke="#000000" points="155.5001,-140.9909 159,-150.991 162.5001,-140.991 155.5001,-140.9909"/>
</g>
<!-- LibraryButtonComponent  -->
<g id="node4" class="node">
<title>LibraryButtonComponent </title>
<polygon fill="#fb8072" stroke="#000000" points="431.4292,-252 266.5708,-252 266.5708,-216 431.4292,-216 431.4292,-252"/>
<text text-anchor="middle" x="349" y="-229.8" font-family="Times,serif" font-size="14.00" fill="#000000">LibraryButtonComponent </text>
</g>
<!-- ComponentsLibraryModule&#45;&gt;LibraryButtonComponent  -->
<g id="edge3" class="edge">
<title>ComponentsLibraryModule&#45;&gt;LibraryButtonComponent </title>
<path fill="none" stroke="#000000" stroke-dasharray="5,2" d="M245.2961,-175C283.6373,-175 320.2618,-175 320.2618,-175 320.2618,-175 320.2618,-205.9775 320.2618,-205.9775"/>
<polygon fill="#000000" stroke="#000000" points="316.7619,-205.9774 320.2618,-215.9775 323.7619,-205.9775 316.7619,-205.9774"/>
</g>
<!-- LibraryCheckboxComponent  -->
<g id="node5" class="node">
<title>LibraryCheckboxComponent </title>
<polygon fill="#fb8072" stroke="#000000" points="248.5777,-252 65.4223,-252 65.4223,-216 248.5777,-216 248.5777,-252"/>
<text text-anchor="middle" x="157" y="-229.8" font-family="Times,serif" font-size="14.00" fill="#000000">LibraryCheckboxComponent </text>
</g>
<!-- ComponentsLibraryModule&#45;&gt;LibraryCheckboxComponent  -->
<g id="edge4" class="edge">
<title>ComponentsLibraryModule&#45;&gt;LibraryCheckboxComponent </title>
<path fill="none" stroke="#000000" stroke-dasharray="5,2" d="M159,-187.1061C159,-187.1061 159,-205.991 159,-205.991"/>
<polygon fill="#000000" stroke="#000000" points="155.5001,-205.9909 159,-215.991 162.5001,-205.991 155.5001,-205.9909"/>
</g>
</g>
</svg>
