<?xml version="1.0" encoding="UTF-8" standalone="no"?>
<!DOCTYPE svg PUBLIC "-//W3C//DTD SVG 1.1//EN"
 "http://www.w3.org/Graphics/SVG/1.1/DTD/svg11.dtd">
<!-- Generated by graphviz version 2.40.1 (20161225.0304)
 -->
<!-- Title: dependencies Pages: 1 -->
<svg width="504pt" height="284pt"
 viewBox="0.00 0.00 504.00 284.00" xmlns="http://www.w3.org/2000/svg" xmlns:xlink="http://www.w3.org/1999/xlink">
<g id="graph0" class="graph" transform="scale(1 1) rotate(0) translate(4 280)">
<title>dependencies</title>
<polygon fill="#ffffff" stroke="transparent" points="-4,4 -4,-280 500,-280 500,4 -4,4"/>
<text text-anchor="start" x="227.0091" y="-42.4" font-family="sans-serif" font-weight="bold" font-size="14.00" fill="#000000">Legend</text>
<polygon fill="#ffffb3" stroke="transparent" points="14,-10 14,-30 34,-30 34,-10 14,-10"/>
<text text-anchor="start" x="37.629" y="-15.4" font-family="sans-serif" font-size="14.00" fill="#000000"> &#160;Declarations</text>
<polygon fill="#8dd3c7" stroke="transparent" points="127,-10 127,-30 147,-30 147,-10 127,-10"/>
<text text-anchor="start" x="150.7251" y="-15.4" font-family="sans-serif" font-size="14.00" fill="#000000"> &#160;Module</text>
<polygon fill="#80b1d3" stroke="transparent" points="213,-10 213,-30 233,-30 233,-10 213,-10"/>
<text text-anchor="start" x="236.7812" y="-15.4" font-family="sans-serif" font-size="14.00" fill="#000000"> &#160;Bootstrap</text>
<polygon fill="#fdb462" stroke="transparent" points="310,-10 310,-30 330,-30 330,-10 310,-10"/>
<text text-anchor="start" x="333.6732" y="-15.4" font-family="sans-serif" font-size="14.00" fill="#000000"> &#160;Providers</text>
<polygon fill="#fb8072" stroke="transparent" points="406,-10 406,-30 426,-30 426,-10 406,-10"/>
<text text-anchor="start" x="429.7258" y="-15.4" font-family="sans-serif" font-size="14.00" fill="#000000"> &#160;Exports</text>
<g id="clust1" class="cluster">
<title>cluster_ComponentsLibraryModule</title>
<polygon fill="none" stroke="#000000" stroke-dasharray="1,5" points="57,-70 57,-268 287,-268 287,-70 57,-70"/>
</g>
<g id="clust2" class="cluster">
<title>cluster_ComponentsLibraryModule_declarations</title>
<polygon fill="none" stroke="#000000" points="67,-78 67,-130 277,-130 277,-78 67,-78"/>
</g>
<g id="clust5" class="cluster">
<title>cluster_ComponentsLibraryModule_exports</title>
<polygon fill="none" stroke="#000000" points="65,-208 65,-260 279,-260 279,-208 65,-208"/>
</g>
<g id="clust8" class="cluster">
<title>cluster_ExamplesModule</title>
<polygon fill="none" stroke="#000000" stroke-dasharray="1,5" points="295,-70 295,-195 439,-195 439,-70 295,-70"/>
</g>
<g id="clust10" class="cluster">
<title>cluster_ExamplesModule_imports</title>
<polygon fill="none" stroke="#000000" points="303,-78 303,-130 431,-130 431,-78 303,-78"/>
</g>
<!-- ComponentsLibraryComponent -->
<g id="node1" class="node">
<title>ComponentsLibraryComponent</title>
<polygon fill="#ffffb3" stroke="#000000" points="269.0884,-122 74.9116,-122 74.9116,-86 269.0884,-86 269.0884,-122"/>
<text text-anchor="middle" x="172" y="-99.8" font-family="Times,serif" font-size="14.00" fill="#000000">ComponentsLibraryComponent</text>
</g>
<!-- ComponentsLibraryModule -->
<g id="node2" class="node">
<title>ComponentsLibraryModule</title>
<polygon fill="#8dd3c7" stroke="#000000" points="258.3061,-187 255.3061,-191 234.3061,-191 231.3061,-187 85.6939,-187 85.6939,-151 258.3061,-151 258.3061,-187"/>
<text text-anchor="middle" x="172" y="-164.8" font-family="Times,serif" font-size="14.00" fill="#000000">ComponentsLibraryModule</text>
</g>
<!-- ComponentsLibraryComponent&#45;&gt;ComponentsLibraryModule -->
<g id="edge1" class="edge">
<title>ComponentsLibraryComponent&#45;&gt;ComponentsLibraryModule</title>
<path fill="none" stroke="#000000" d="M172,-122.1061C172,-122.1061 172,-140.991 172,-140.991"/>
<polygon fill="#000000" stroke="#000000" points="168.5001,-140.9909 172,-150.991 175.5001,-140.991 168.5001,-140.9909"/>
</g>
<!-- ComponentsLibraryComponent  -->
<g id="node3" class="node">
<title>ComponentsLibraryComponent </title>
<polygon fill="#fb8072" stroke="#000000" points="270.5888,-252 73.4112,-252 73.4112,-216 270.5888,-216 270.5888,-252"/>
<text text-anchor="middle" x="172" y="-229.8" font-family="Times,serif" font-size="14.00" fill="#000000">ComponentsLibraryComponent </text>
</g>
<!-- ComponentsLibraryModule&#45;&gt;ComponentsLibraryComponent  -->
<g id="edge2" class="edge">
<title>ComponentsLibraryModule&#45;&gt;ComponentsLibraryComponent </title>
<path fill="none" stroke="#000000" stroke-dasharray="5,2" d="M172,-187.1061C172,-187.1061 172,-205.991 172,-205.991"/>
<polygon fill="#000000" stroke="#000000" points="168.5001,-205.9909 172,-215.991 175.5001,-205.991 168.5001,-205.9909"/>
</g>
<!-- CommonModule -->
<g id="node4" class="node">
<title>CommonModule</title>
<polygon fill="#8dd3c7" stroke="#000000" points="422.6681,-122 419.6681,-126 398.6681,-126 395.6681,-122 311.3319,-122 311.3319,-86 422.6681,-86 422.6681,-122"/>
<text text-anchor="middle" x="367" y="-99.8" font-family="Times,serif" font-size="14.00" fill="#000000">CommonModule</text>
</g>
<!-- ExamplesModule -->
<g id="node5" class="node">
<title>ExamplesModule</title>
<polygon fill="#8dd3c7" stroke="#000000" points="424.2577,-187 421.2577,-191 400.2577,-191 397.2577,-187 309.7423,-187 309.7423,-151 424.2577,-151 424.2577,-187"/>
<text text-anchor="middle" x="367" y="-164.8" font-family="Times,serif" font-size="14.00" fill="#000000">ExamplesModule</text>
</g>
<!-- CommonModule&#45;&gt;ExamplesModule -->
<g id="edge3" class="edge">
<title>CommonModule&#45;&gt;ExamplesModule</title>
<path fill="none" stroke="#000000" d="M367,-122.1061C367,-122.1061 367,-140.991 367,-140.991"/>
<polygon fill="#000000" stroke="#000000" points="363.5001,-140.9909 367,-150.991 370.5001,-140.991 363.5001,-140.9909"/>
</g>
</g>
</svg>
